<svg fill="none" xmlns="http://www.w3.org/2000/svg">
<path d="M7.01154 1C10.0074 1 12.4448 3.243 12.4448 6C12.4448 8.757 10.0074 11 7.01154 11C4.01564 11 1.57829 8.757 1.57829 6C1.57829 3.243 4.01564 1 7.01154 1ZM7.01154 0C3.41092 0 0.491638 2.6865 0.491638 6C0.491638 9.3135 3.41092 12 7.01154 12C10.6121 12 13.5314 9.3135 13.5314 6C13.5314 2.6865 10.6121 0 7.01154 0ZM7.69069 8.5C7.69069 8.845 7.38697 9.125 7.01154 9.125C6.63718 9.125 6.33238 8.845 6.33238 8.5C6.33238 8.155 6.63718 7.875 7.01154 7.875C7.38697 7.875 7.69069 8.155 7.69069 8.5ZM8.44754 3.501C8.1172 3.193 7.62441 3.0235 7.06152 3.0235C5.87707 3.0235 5.11099 3.7985 5.11099 4.9985H6.20361C6.20361 4.2555 6.65403 3.992 7.03924 3.992C7.38371 3.992 7.74937 4.2025 7.78034 4.605C7.81403 5.0285 7.56844 5.2435 7.25766 5.5155C6.49049 6.187 6.47636 6.512 6.47962 7.2495H7.56899C7.56192 6.9175 7.58529 6.648 8.077 6.1605C8.44483 5.7955 8.90231 5.3415 8.91154 4.6495C8.91752 4.1875 8.75724 3.79 8.44754 3.501Z" fill="#A7A0A0"/>
</svg>
